<svg id="Layer_1" data-name="Layer 1" xmlns="http://www.w3.org/2000/svg" viewBox="0 0 414 476">
  <title>logo 3d</title>
  <g class="browser">
    <path d="M316.65,378a3.19,3.19,0,0,0,.68-.3l10.56-6.13a4.23,4.23,0,0,1-.69.3l-.2.05a3.14,3.14,0,0,1-.61.12l-.16,0a5.54,5.54,0,0,1-1,0l-.22,0a5.56,5.56,0,0,1-.76-.18l-.15,0c-.28-.1-.57-.21-.87-.35l-.69-.36L246,326.89l-.5-.32c-.28-.18-.55-.37-.82-.58l-.13-.1c-.39-.32-.77-.67-1.14-1l-.17-.17a13.67,13.67,0,0,1-.94-1.06l-.17-.22q-.47-.58-.87-1.2l0-.07c-.26-.41-.5-.82-.73-1.25l-.12-.22c-.23-.43-.43-.86-.62-1.3l-.1-.25a13.92,13.92,0,0,1-.51-1.45,2.17,2.17,0,0,1-.07-.24c-.09-.32-.16-.63-.23-.95l-.06-.32q-.08-.42-.12-.84l0-.21c0-.32,0-.63,0-.93l.06-21.43-81.94-47.31-.49-.32c-.28-.18-.56-.38-.83-.59l-.13-.09a14,14,0,0,1-1.15-1.05l-.16-.16c-.33-.34-.64-.69-.94-1.06l-.18-.23c-.3-.38-.59-.78-.86-1.19l-.06-.09c-.26-.4-.5-.81-.73-1.23l-.12-.22c-.22-.43-.43-.87-.61-1.3l-.11-.26q-.29-.72-.51-1.44l-.06-.25c-.09-.31-.17-.62-.23-.93,0-.11-.05-.22-.07-.33a8,8,0,0,1-.11-.84l0-.21c0-.31,0-.62,0-.93l.18-65.05L110.22,145c-.17-.09-.33-.21-.5-.31s-.55-.38-.82-.59l-.13-.1a13.85,13.85,0,0,1-1.15-1l-.16-.16c-.33-.34-.64-.7-.94-1.07l-.18-.22q-.45-.59-.87-1.2a.35.35,0,0,0,0-.08c-.26-.4-.5-.82-.73-1.24l-.12-.22c-.22-.43-.43-.87-.62-1.31l-.1-.25c-.19-.48-.37-1-.51-1.45,0-.08,0-.16-.07-.24-.08-.31-.16-.63-.22-.94,0-.11,0-.21-.07-.32,0-.28-.09-.57-.12-.85a1.49,1.49,0,0,1,0-.21c0-.31,0-.62,0-.92l.12-40.56c0-.1,0-.2,0-.3a6.46,6.46,0,0,1,.07-.78l0-.25a6,6,0,0,1,.25-1,1.19,1.19,0,0,1,.08-.2,5.11,5.11,0,0,1,.2-.47l.13-.23.24-.37.15-.19a3.26,3.26,0,0,1,.31-.33l.15-.14a2.73,2.73,0,0,1,.52-.37L94.49,93.19a4.49,4.49,0,0,0-.52.37s-.09.1-.14.14a3.19,3.19,0,0,0-.31.33l-.15.19a3,3,0,0,0-.24.38,1.59,1.59,0,0,0-.13.22c-.07.15-.14.31-.2.47a.77.77,0,0,0-.07.16.06.06,0,0,0,0,0,6,6,0,0,0-.25,1l0,.11a.81.81,0,0,1,0,.15c0,.25-.05.51-.06.77,0,.06,0,.11,0,.17s0,.09,0,.13l-.11,40.56c0,.31,0,.62,0,.93v0l0,.17q0,.42.12.84a.68.68,0,0,0,0,.14c0,.06,0,.12,0,.19.07.31.14.62.23.94,0,.05,0,.11,0,.17a.14.14,0,0,1,0,.07c.15.48.32,1,.52,1.45,0,0,0,.09,0,.13a.61.61,0,0,0,.05.12c.19.44.39.87.62,1.3l.12.22c.23.43.47.84.73,1.24a.56.56,0,0,0,0,.08,14.66,14.66,0,0,0,.87,1.2l.17.22c.3.38.62.73.94,1.07L97,149a.81.81,0,0,0,.1.09,12.54,12.54,0,0,0,1.15,1.05l0,0,.11.07c.27.21.54.41.82.59l.14.1.36.22,39.27,22.67-.19,65.06c0,.3,0,.61,0,.92a.08.08,0,0,1,0,0,.88.88,0,0,0,0,.17c0,.28.07.56.12.85,0,0,0,.09,0,.13s0,.13,0,.19c.07.31.14.62.23.94a1,1,0,0,1,0,.17l0,.07a13,13,0,0,0,.51,1.44s0,.1.05.14,0,.08,0,.12c.19.44.39.87.62,1.3l.12.22c.23.42.47.83.73,1.23l.05.09c.27.41.57.81.87,1.2l.17.22c.31.37.62.73.94,1.06a.46.46,0,0,0,.07.07s.07.06.1.1a14,14,0,0,0,1.15,1l0,0,.1.08c.28.21.55.4.83.59l.14.1.36.21,81.94,47.31-.06,21.43c0,.31,0,.62,0,.93v0a1,1,0,0,1,0,.17c0,.28.07.56.12.85,0,0,0,.09,0,.13a1.33,1.33,0,0,1,.05.19c.06.31.14.63.23.94a1.16,1.16,0,0,0,0,.18.14.14,0,0,1,0,.06c.15.49.32,1,.52,1.45a.74.74,0,0,0,0,.14l.06.11c.18.44.39.88.61,1.3l.13.23c.22.42.47.84.73,1.24l0,.07c.28.42.57.81.87,1.2l.18.22c.3.37.61.73.93,1.07a.46.46,0,0,1,.07.07l.1.09a12.41,12.41,0,0,0,1.15,1l0,0,.11.07c.27.21.54.4.82.59l.14.09c.11.08.23.15.35.22L312,377.2c.22.12.43.24.64.34l.06,0a6.33,6.33,0,0,0,.87.35l0,0,.12,0a7.5,7.5,0,0,0,.75.19l.13,0h.1a4.68,4.68,0,0,0,1,0h0l.12,0a4,4,0,0,0,.62-.11Z" style="fill: #426f85"/>
    <path d="M380.22,209.75c5.85,3.37,10.62,11.63,10.6,18.34L390.17,458c0,6.71-4.82,9.44-10.67,6.06L46.64,271.89C40.8,268.51,36,260.26,36.05,253.55L36.7,23.64c0-6.71,4.82-9.45,10.66-6.07ZM319.47,373.08l.11-40.57c0-4.62-3.33-10.35-7.42-12.71l-61.62-35.58.13-46.69c0-4.63-3.33-10.35-7.43-12.72l-59.59-34.4.12-39.8c0-4.63-3.33-10.35-7.42-12.72L99.83,93.71c-4.1-2.36-7.46-.51-7.48,4.12l-.11,40.56c0,4.64,3.33,10.36,7.43,12.73l39.27,22.67-.19,65.06c0,4.63,3.33,10.35,7.43,12.71l81.94,47.31-.06,21.43c0,4.63,3.32,10.36,7.41,12.72L312,377.2c4.1,2.37,7.47.51,7.48-4.12M374.84,233l0-8.82a10.1,10.1,0,0,0-4.56-7.9L84.08,51c-2.52-1.45-4.58-.27-4.59,2.62l0,8.82A10.1,10.1,0,0,0,84,70.33L370.26,235.58c2.51,1.45,4.58.27,4.58-2.61M76,59.43V52.58a12,12,0,0,0-5.41-9.38L54.52,33.93c-3-1.73-5.43-.32-5.44,3.11l0,6.85a12,12,0,0,0,5.41,9.37l16,9.27c3,1.73,5.45.33,5.46-3.1" style="fill: #75c5ec"/>
    <path d="M70.58,43.2A12,12,0,0,1,76,52.58l0,6.85c0,3.43-2.47,4.83-5.46,3.1l-16-9.26a12,12,0,0,1-5.41-9.38l0-6.85c0-3.43,2.46-4.84,5.44-3.11Z" style="fill: #ececec"/>
    <path d="M370.31,216.25a10.1,10.1,0,0,1,4.56,7.9l0,8.82c0,2.88-2.07,4.06-4.58,2.61L84,70.33a10.09,10.09,0,0,1-4.56-7.9l0-8.82c0-2.89,2.07-4.07,4.59-2.62Z" style="fill: #ececec"/>
    <path d="M401.31,220.6v-.07c0-.08,0-.17,0-.25,0-.41-.1-.82-.17-1.23l0-.21a2,2,0,0,1-.06-.26c-.1-.47-.21-1-.35-1.42,0-.08,0-.15-.05-.23l0-.1c-.05-.17-.1-.33-.16-.5s-.16-.52-.26-.78-.13-.34-.2-.52l-.2-.51-.06-.15c-.27-.63-.57-1.25-.89-1.86a3.9,3.9,0,0,0-.19-.35c-.34-.63-.7-1.26-1.09-1.86h0c-.39-.6-.81-1.17-1.24-1.72-.09-.11-.16-.21-.25-.31-.42-.53-.87-1-1.33-1.52l-.11-.12c-.12-.13-.26-.24-.38-.37l-.38-.36c-.2-.19-.42-.37-.63-.55s-.22-.2-.34-.29l-.07-.06c-.06-.05-.12-.08-.17-.13-.37-.28-.74-.55-1.12-.8l-.21-.14c-.16-.11-.33-.21-.5-.31L57.92,11.44c-.3-.18-.6-.33-.9-.48l-.08,0a12.23,12.23,0,0,0-1.23-.5h0l-.16,0a7.23,7.23,0,0,0-1.07-.26,1.16,1.16,0,0,0-.18,0l-.29,0-.34,0h-1a.76.76,0,0,0-.16,0,6.36,6.36,0,0,0-.89.16l-.28.09a5,5,0,0,0-1,.42L39.81,16.84a5.26,5.26,0,0,1,1-.42l.29-.08a6.22,6.22,0,0,1,.88-.17l.25,0a2.81,2.81,0,0,1,.29,0,3.77,3.77,0,0,1,.58,0l.34,0,.48.07a9.22,9.22,0,0,1,1.07.26l.2.06a12.09,12.09,0,0,1,1.23.49c.32.16.64.32,1,.51L380.22,209.75c.24.14.48.29.71.45a13.59,13.59,0,0,1,1.12.8l.25.18.34.29.63.55.37.37c.17.16.33.32.49.49.47.48.91,1,1.34,1.51l.24.31c.44.56.86,1.13,1.25,1.72v0c.4.6.76,1.22,1.1,1.85l.19.35c.32.62.61,1.24.88,1.87.09.22.18.43.26.65l.21.53c.09.26.18.52.26.78l.16.49.09.33c.13.48.25,1,.34,1.43,0,.15.07.31.09.47.08.41.14.82.18,1.22,0,.11,0,.22,0,.32,0,.46.06.91.06,1.36L390.17,458c0,.15,0,.29,0,.43,0,.4,0,.78-.1,1.15,0,.13,0,.25-.05.37a10,10,0,0,1-.36,1.48l-.12.31c-.09.23-.19.46-.29.67l-.19.33c-.11.19-.23.37-.35.54a3.15,3.15,0,0,1-.22.29c-.14.17-.29.32-.44.47s-.14.15-.22.21a4.91,4.91,0,0,1-.75.54h0l10.55-6.13a5.11,5.11,0,0,0,.75-.54l.22-.21a5,5,0,0,0,.45-.47l.21-.29a5.07,5.07,0,0,0,.36-.54l.18-.33a7,7,0,0,0,.29-.68,2.4,2.4,0,0,0,.11-.23s0-.05,0-.07a8.43,8.43,0,0,0,.36-1.48c0-.05,0-.1,0-.15s0-.15,0-.22a10.51,10.51,0,0,0,.09-1.15c0-.08,0-.15,0-.23v-.21L401.37,222Q401.37,221.29,401.31,220.6Z" style="fill: #4a7c94"/>
  </g>
  <g class="logo">
    <path d="M87.86,152.16c3.84,2.22,7,7.57,7,11.9l-.11,37.23,55.75,32.19c3.83,2.21,7,7.57,7,11.89l-.13,43.68,57.65,33.29c3.83,2.21,7,7.57,7,11.9l-.11,37.94c0,4.34-3.16,6.07-7,3.86l-71.59-41.33c-3.83-2.21-7-7.57-7-11.9l.06-20.06L59.64,258.5c-3.83-2.21-7-7.56-6.94-11.89l.17-60.86L16.13,164.53c-3.83-2.21-7-7.56-6.95-11.9l.11-37.94c0-4.33,3.16-6.07,7-3.86Z" style="fill: #ececec"/>
    <path d="M231.7,327.64v0a.88.88,0,0,1,0-.16c0-.26-.07-.53-.12-.79,0,0,0-.09,0-.13l-.05-.17c-.06-.29-.13-.59-.21-.88a1,1,0,0,0,0-.17s0,0,0-.06q-.21-.67-.48-1.35c0-.05,0-.09-.05-.13a.54.54,0,0,0,0-.11c-.17-.41-.36-.82-.57-1.22l-.12-.21c-.21-.39-.44-.78-.68-1.16l-.05-.07c-.25-.39-.53-.76-.81-1.12l-.17-.21c-.28-.35-.57-.68-.87-1a.2.2,0,0,1-.06-.07l-.1-.08a13.94,13.94,0,0,0-1.07-1l0,0-.1-.07c-.25-.19-.5-.38-.76-.55a.6.6,0,0,1-.13-.09l-.34-.2-57.64-33.28.12-43.68a8.44,8.44,0,0,0,0-.87v0a1,1,0,0,1,0-.16c0-.26-.07-.53-.12-.79,0,0,0-.09,0-.13a.84.84,0,0,0-.05-.17c-.06-.29-.13-.59-.21-.88a1.36,1.36,0,0,0,0-.17.14.14,0,0,0,0-.06c-.13-.45-.3-.9-.48-1.35a.65.65,0,0,1,0-.13l-.06-.11c-.17-.41-.36-.82-.57-1.22l-.12-.2c-.21-.4-.43-.78-.68-1.16l-.05-.08c-.25-.39-.53-.76-.81-1.12l-.16-.21c-.29-.35-.58-.68-.88-1l-.06-.07-.1-.09a12,12,0,0,0-1.07-1l0,0-.1-.07c-.25-.19-.5-.37-.76-.54l-.13-.1-.34-.2-55.74-32.18.1-37.24a8.38,8.38,0,0,0,0-.86v0s0-.11,0-.16c0-.26-.07-.53-.11-.79,0,0,0-.09,0-.13s0-.11,0-.17a8.7,8.7,0,0,0-.22-.88,1,1,0,0,0,0-.17.14.14,0,0,0,0-.06c-.13-.45-.3-.91-.48-1.36a.56.56,0,0,1,0-.12.54.54,0,0,1-.05-.11c-.18-.41-.37-.82-.58-1.22a2.12,2.12,0,0,1-.11-.21c-.22-.39-.44-.78-.69-1.16a.43.43,0,0,1,0-.07c-.26-.38-.53-.76-.81-1.12l-.17-.21c-.28-.34-.57-.68-.88-1l-.06-.07-.09-.09c-.35-.34-.71-.67-1.08-1l0,0-.1-.07c-.25-.2-.51-.38-.77-.55l-.13-.1-.34-.2L26.16,105.1c-.2-.12-.4-.22-.6-.32l0,0a7.81,7.81,0,0,0-.82-.33h0a.38.38,0,0,0-.1,0,7.25,7.25,0,0,0-.71-.17l-.12,0h-.09a4.13,4.13,0,0,0-.92,0h0l-.11,0a3.7,3.7,0,0,0-.58.1l-.19.06a3,3,0,0,0-.64.28l-9.87,5.73a3.61,3.61,0,0,1,.64-.27l.19-.06a4.8,4.8,0,0,1,.57-.11h.15a4.75,4.75,0,0,1,.92,0l.21,0a4.57,4.57,0,0,1,.71.17l.14,0a6.89,6.89,0,0,1,.81.33c.22.1.43.21.65.33l71.58,41.33.47.29c.26.18.52.36.77.56l.12.09a10.77,10.77,0,0,1,1.07,1,1.21,1.21,0,0,1,.16.16c.3.31.6.64.88,1l.16.21a12.75,12.75,0,0,1,.81,1.12l0,.07c.24.38.47.77.68,1.16l.12.21c.21.4.4.81.57,1.22a1.6,1.6,0,0,1,.1.23c.18.45.34.91.48,1.36l.06.22c.08.3.15.59.21.89l.06.3a7.14,7.14,0,0,1,.11.79l0,.19c0,.3,0,.59,0,.87l-.11,37.23,55.75,32.19c.16.09.31.19.46.29s.52.36.77.55l.12.09a14.06,14.06,0,0,1,1.08,1l.15.15c.31.32.6.65.88,1l.17.21c.28.36.55.73.81,1.12a.56.56,0,0,1,.05.08c.24.37.47.76.68,1.16a1.28,1.28,0,0,1,.11.2c.21.4.41.81.58,1.22l.1.24q.27.67.48,1.35l.06.23c.08.29.15.58.21.88l.06.29c.05.27.08.53.11.8l0,.19c0,.29,0,.58,0,.86l-.13,43.68,57.65,33.29c.16.09.31.19.46.29s.52.35.77.55l.12.09a14.06,14.06,0,0,1,1.08,1l.15.15c.31.32.6.65.88,1l.17.21c.28.36.55.73.81,1.12l0,.07c.25.38.48.77.69,1.16a2.12,2.12,0,0,1,.11.21c.21.4.4.81.58,1.22a2.29,2.29,0,0,0,.1.23c.18.45.34.91.48,1.36l.06.23c.08.29.15.58.21.88l.06.3c.05.26.08.53.11.79l0,.19c0,.3,0,.59,0,.87l-.11,37.94a2.46,2.46,0,0,1,0,.28,5.71,5.71,0,0,1-.05.73,2,2,0,0,0,0,.24,6.46,6.46,0,0,1-.23.94,1.08,1.08,0,0,1-.08.19,3.43,3.43,0,0,1-.19.44,2.12,2.12,0,0,1-.11.21c-.07.12-.15.24-.23.35l-.14.18c-.09.11-.19.21-.29.31l-.14.13a3.27,3.27,0,0,1-.48.35h0l9.87-5.74a4,4,0,0,0,.49-.35l.14-.13a4.12,4.12,0,0,0,.28-.31,1.24,1.24,0,0,0,.14-.18c.08-.11.16-.23.23-.35l.12-.21a4.48,4.48,0,0,0,.19-.44.84.84,0,0,0,.06-.14.09.09,0,0,0,0-.05,5.17,5.17,0,0,0,.23-.94l0-.1a.71.71,0,0,1,0-.14c0-.23.05-.47.06-.73,0-.05,0-.09,0-.15v-.13l.11-37.94A8.38,8.38,0,0,0,231.7,327.64Z" style="fill: #949494"/>
  </g>
</svg>
